<svg width="664" height="214" viewBox="0 0 664 214" fill="none" xmlns="http://www.w3.org/2000/svg">
<path d="M91.198 112.434C91.198 204.48 91.198 17.786 91.198 155.785C91.198 173.888 76.5174 188.569 58.4044 188.569C48.4973 188.569 39.6409 184.156 33.6266 177.211L20.6873 199.617C30.8245 208.343 43.984 213.657 58.4044 213.657C89.9171 213.657 115.485 188.469 116.216 157.126H116.286V112.434H91.198Z" fill="#23E1F1"/>
<path d="M241.976 43.3544C210.013 43.3544 184.105 69.273 184.105 101.236C184.105 110.162 186.186 118.588 189.789 126.134L212.895 86.1151C218.359 75.6276 229.317 68.4424 241.976 68.4424C260.079 68.4424 274.77 83.123 274.77 101.236C274.77 119.339 260.079 134.02 241.976 134.02C232.069 134.02 223.203 129.606 217.199 122.661L204.259 145.068C214.387 153.794 227.556 159.108 241.976 159.108C273.939 159.108 299.848 133.199 299.848 101.236C299.848 69.273 273.939 43.3544 241.976 43.3544Z" fill="#23E1F1"/>
<path d="M346.602 43.3544C334.423 43.3544 323.135 47.1371 313.808 53.5717V0.16333H288.73V102.587H288.8C288.99 110.993 291.022 118.929 294.434 126.084L317.611 85.935C323.115 75.5376 334.023 68.4424 346.602 68.4424C364.715 68.4424 379.395 83.123 379.395 101.236C379.395 119.339 364.715 134.02 346.602 134.02C336.684 134.02 327.828 129.606 321.814 122.651L308.894 145.028C319.012 153.774 332.171 159.108 346.602 159.108C378.565 159.108 404.483 133.199 404.483 101.236C404.483 69.273 378.565 43.3544 346.602 43.3544Z" fill="#23E1F1"/>
<path d="M116.216 99.885C115.495 68.5525 89.917 43.3544 58.4043 43.3544C26.4413 43.3544 0.532715 69.273 0.532715 101.236C0.532715 110.152 2.6142 118.568 6.2168 126.114L29.4635 85.8349C34.9775 75.4875 45.8653 68.4424 58.4043 68.4424C76.5174 68.4424 91.1979 83.123 91.1979 101.236C91.1979 119.339 76.5174 134.02 58.4043 134.02C48.4872 134.02 39.6208 129.596 33.6065 122.641L20.6672 145.058C30.8045 153.794 43.9739 159.108 58.4043 159.108C70.5831 159.108 81.8712 155.325 91.1979 148.9V158.047H116.286V99.885H116.216Z" fill="#23E1F1"/>
<path d="M133.778 0.643677C133.778 92.6899 133.778 -37.794 133.778 100.205C133.778 118.318 148.469 132.999 166.572 132.999C176.479 132.999 185.346 128.586 191.36 121.641L204.289 144.047C194.162 152.773 180.992 158.087 166.572 158.087C135.059 158.087 109.491 132.889 108.76 101.556H108.69V0.643677H133.778Z" fill="#23E1F1"/>
<path d="M450.196 43.3544C418.233 43.3544 392.324 69.273 392.324 101.236C392.324 110.162 394.406 118.588 398.009 126.134L421.115 86.1151C426.589 75.6276 437.547 68.4424 450.196 68.4424C468.309 68.4424 482.99 83.123 482.99 101.236C482.99 119.339 468.309 134.02 450.196 134.02C440.289 134.02 431.423 129.606 425.418 122.661L412.479 145.068C422.616 153.794 435.776 159.108 450.196 159.108C482.159 159.108 508.068 133.199 508.068 101.236C508.068 69.273 482.159 43.3544 450.196 43.3544Z" fill="#23E1F1" stroke="#23E1F1" stroke-width="0.480345" stroke-miterlimit="10"/>
<path d="M554.441 43.3544C522.478 43.3544 496.569 69.273 496.569 101.236C496.569 110.162 498.651 118.588 502.253 126.134L525.36 86.1151C530.834 75.6276 541.792 68.4424 554.441 68.4424C572.554 68.4424 587.235 83.123 587.235 101.236C587.235 119.339 572.554 134.02 554.441 134.02C544.534 134.02 535.667 129.606 529.663 122.661L516.724 145.068C526.861 153.794 540.021 159.108 554.441 159.108C586.404 159.108 612.313 133.199 612.313 101.236C612.313 69.273 586.404 43.3544 554.441 43.3544Z" fill="#23E1F1" stroke="#23E1F1" stroke-width="0.480345" stroke-miterlimit="10"/>
<path d="M620.399 51.3101V28.5137H612.273V23.8704H634.038V28.5137H625.953V51.3101H620.399Z" fill="#23E1F1"/>
<path d="M637.561 51.3101V23.8704H645.877L650.801 42.5838L655.654 23.8704H664V51.3101H658.856L658.846 29.7146L653.432 51.3101H648.099L642.715 29.7146L642.695 51.3101H637.561Z" fill="#23E1F1"/>
</svg>
