<svg width="324" height="362" viewBox="0 0 324 362" fill="none" xmlns="http://www.w3.org/2000/svg">
<g clip-path="url(#clip0_3_84)">
<path d="M300.876 67.7888C301.917 67.7888 302.758 66.8981 302.758 65.8174C302.758 64.7266 301.917 63.8359 300.876 63.8359C299.846 63.8359 298.995 64.7266 298.995 65.8174C298.995 66.8981 299.846 67.7888 300.876 67.7888ZM300.876 64.3763C301.637 64.3763 302.247 65.0168 302.247 65.8174C302.247 66.6079 301.637 67.2584 300.876 67.2584C300.126 67.2584 299.505 66.6079 299.505 65.8174C299.505 65.0168 300.126 64.3763 300.876 64.3763Z" fill="#D3D5DB"/>
<path d="M202.696 33.0839C203.727 33.0839 204.567 32.2033 204.567 31.1125C204.567 30.0217 203.727 29.1411 202.696 29.1411C201.655 29.1411 200.814 30.0217 200.814 31.1125C200.814 32.2033 201.655 33.0839 202.696 33.0839ZM202.696 29.6715C203.446 29.6715 204.067 30.312 204.067 31.1125C204.067 31.9031 203.446 32.5536 202.696 32.5536C201.935 32.5536 201.325 31.9031 201.325 31.1125C201.325 30.312 201.935 29.6715 202.696 29.6715Z" fill="#D3D5DB"/>
<path d="M251.201 89.8544L252.331 88.6636C260.297 96.269 267.242 104.875 272.986 114.232L271.585 115.093C265.921 105.846 259.056 97.3598 251.201 89.8544Z" fill="#23E1F1"/>
<path d="M210.932 62.2145L210.331 63.7356C200.244 59.7828 189.656 57.1509 178.849 55.93L179.039 54.2988C189.977 55.5397 200.714 58.2016 210.932 62.2145Z" fill="#23E1F1"/>
<path d="M170.743 55.2698C168.691 55.1697 166.6 55.1197 164.538 55.1197V53.4785C166.63 53.4785 168.741 53.5286 170.823 53.6286L170.743 55.2698Z" fill="#23E1F1" stroke="#23E1F1" stroke-width="0.480345" stroke-miterlimit="10"/>
<path d="M86.7624 261.458L86.192 262.049C75.3442 251.621 66.8281 239.362 60.8538 225.622C54.6694 211.392 51.5371 196.251 51.5371 180.61C51.5371 162.327 56.0003 144.164 64.4564 128.092L65.1769 128.473C56.7909 144.424 52.3477 162.457 52.3477 180.61C52.3477 196.141 55.4699 211.172 61.6044 225.292C67.5286 238.932 75.9947 251.101 86.7624 261.458Z" fill="#036A75"/>
<path d="M164.538 67.6084V68.429C135.698 68.429 108.308 79.3468 87.3829 99.1711C87.3028 99.2412 87.2128 99.2812 87.1027 99.2812C87.0026 99.2812 86.8925 99.2411 86.8125 99.1611L86.7725 99.1211L87.0727 98.8309L86.8225 98.5707C107.898 78.6063 135.487 67.6084 164.538 67.6084Z" fill="#9ADBE3"/>
<path d="M83.2298 71.0211C65.387 82.6494 50.4963 98.6409 40.1889 117.254C29.5412 136.458 23.9172 158.284 23.9172 180.38H21.6255C21.6255 227.023 44.9123 270.224 83.9203 295.923C84.0804 296.033 84.1505 296.233 84.0804 296.413C84.0204 296.573 83.8603 296.673 83.7002 296.673H83.6301L83.2899 296.623L83.3099 296.503C44.1717 270.635 20.8149 227.233 20.8149 180.38H20.925C20.925 157.773 26.6692 135.447 37.557 115.793C48.1046 96.7596 63.3355 80.4078 81.5887 68.5093L83.2298 71.0211Z" fill="#184D67"/>
<path d="M262.619 247.828C262.869 247.468 263.129 247.108 263.379 246.748L271.665 252.512C271.395 252.902 271.125 253.292 270.845 253.673L262.619 247.828Z" fill="#23E1F1"/>
<path d="M217.146 286.356C217.537 286.166 217.927 285.966 218.317 285.775L222.83 294.802C222.41 295.022 221.99 295.222 221.559 295.432L217.146 286.356Z" fill="#23E1F1"/>
<path d="M265.991 242.825C266.221 242.464 266.462 242.084 266.692 241.714L275.258 247.058C275.008 247.458 274.758 247.858 274.497 248.259L265.991 242.825Z" fill="#23E1F1"/>
<path d="M251.081 261.718C251.381 261.398 251.681 261.088 251.981 260.768L259.317 267.703C258.996 268.053 258.666 268.393 258.336 268.733L251.081 261.718Z" fill="#23E1F1"/>
<path d="M242.284 269.944C242.625 269.664 242.955 269.384 243.285 269.094L249.89 276.729C249.54 277.039 249.179 277.35 248.819 277.65L242.284 269.944Z" fill="#23E1F1"/>
<path d="M232.727 277.27C233.088 277.019 233.448 276.769 233.798 276.519L239.622 284.765C239.232 285.045 238.842 285.315 238.452 285.586L232.727 277.27Z" fill="#23E1F1"/>
<path d="M227.684 280.552C228.054 280.322 228.424 280.091 228.795 279.861L234.189 288.397C233.798 288.648 233.388 288.898 232.988 289.148L227.684 280.552Z" fill="#23E1F1"/>
<path d="M246.787 265.941C247.098 265.641 247.418 265.341 247.738 265.041L254.723 272.336C254.373 272.666 254.033 272.986 253.692 273.306L246.787 265.941Z" fill="#23E1F1"/>
<path d="M259.006 252.642C259.277 252.301 259.547 251.961 259.817 251.611L267.803 257.785C267.512 258.156 267.222 258.526 266.932 258.906L259.006 252.642Z" fill="#23E1F1"/>
<path d="M255.154 257.275C255.444 256.945 255.724 256.614 256.014 256.284L263.69 262.849C263.379 263.209 263.069 263.569 262.759 263.93L255.154 257.275Z" fill="#23E1F1"/>
<path d="M237.601 273.727C237.941 273.457 238.291 273.196 238.632 272.926L244.856 280.882C244.486 281.172 244.106 281.462 243.735 281.743L237.601 273.727Z" fill="#23E1F1"/>
<path d="M222.49 283.584C222.87 283.374 223.251 283.164 223.631 282.954L228.594 291.74C228.184 291.98 227.774 292.21 227.353 292.43L222.49 283.584Z" fill="#23E1F1"/>
<path d="M164.839 308.492L164.819 298.395C165.259 298.395 165.699 298.395 166.13 298.385L166.25 308.482C165.779 308.492 165.309 308.492 164.839 308.492Z" fill="#23E1F1"/>
<path d="M140.261 306.21C139.801 306.12 139.33 306.03 138.87 305.94L140.861 296.043C141.292 296.123 141.712 296.213 142.152 296.293L140.261 306.21Z" fill="#23E1F1"/>
<path d="M159.725 308.402C159.255 308.382 158.784 308.362 158.314 308.342L158.794 298.254C159.235 298.274 159.675 298.294 160.105 298.314L159.725 308.402Z" fill="#23E1F1"/>
<path d="M133.866 304.829C133.406 304.719 132.946 304.609 132.485 304.489L134.977 294.702C135.397 294.812 135.818 294.912 136.248 295.022L133.866 304.829Z" fill="#23E1F1"/>
<path d="M146.716 307.271C146.255 307.201 145.785 307.131 145.315 307.071L146.796 297.074C147.226 297.144 147.666 297.204 148.097 297.264L146.716 307.271Z" fill="#23E1F1"/>
<path d="M115.233 298.785C114.793 298.605 114.352 298.425 113.912 298.245L117.855 288.938C118.255 289.108 118.655 289.278 119.066 289.448L115.233 298.785Z" fill="#23E1F1"/>
<path d="M121.337 301.117C120.897 300.956 120.447 300.796 119.996 300.636L123.459 291.149C123.869 291.3 124.279 291.45 124.7 291.59L121.337 301.117Z" fill="#23E1F1"/>
<path d="M130.434 293.451L127.552 303.138C127.101 302.998 126.651 302.858 126.201 302.718L129.173 293.071C129.593 293.201 130.004 293.331 130.434 293.451Z" fill="#23E1F1"/>
<path d="M197.132 304.409L194.62 294.632C195.04 294.522 195.461 294.412 195.881 294.302L198.493 304.049C198.042 304.169 197.582 304.289 197.132 304.409Z" fill="#23E1F1"/>
<path d="M203.396 302.638L200.394 292.991C200.814 292.861 201.225 292.731 201.635 292.601L204.747 302.207C204.297 302.348 203.847 302.498 203.396 302.638Z" fill="#23E1F1"/>
<path d="M277.88 242.675L269.104 237.671C269.324 237.291 269.534 236.911 269.754 236.53L278.58 241.434C278.35 241.844 278.11 242.254 277.88 242.675Z" fill="#23E1F1"/>
<path d="M209.571 300.536L206.088 291.059C206.499 290.909 206.899 290.759 207.309 290.599L210.892 300.046C210.451 300.216 210.011 300.376 209.571 300.536Z" fill="#23E1F1"/>
<path d="M215.625 298.134L211.672 288.848C212.073 288.677 212.473 288.507 212.873 288.327L216.926 297.574C216.496 297.764 216.065 297.954 215.625 298.134Z" fill="#23E1F1"/>
<path d="M177.868 307.831L176.857 297.784C177.287 297.744 177.728 297.694 178.158 297.644L179.279 307.681C178.809 307.731 178.338 307.781 177.868 307.831Z" fill="#23E1F1"/>
<path d="M190.777 305.87L188.756 295.973C189.186 295.893 189.616 295.803 190.037 295.713L192.158 305.58C191.698 305.68 191.238 305.78 190.777 305.87Z" fill="#23E1F1"/>
<path d="M171.353 308.322L170.843 298.235C171.283 298.215 171.724 298.195 172.154 298.165L172.774 308.242C172.304 308.272 171.834 308.302 171.353 308.322Z" fill="#23E1F1"/>
<path d="M184.343 307.011L182.832 297.033C183.262 296.963 183.692 296.893 184.122 296.823L185.744 306.79C185.283 306.87 184.813 306.941 184.343 307.011Z" fill="#23E1F1"/>
<path d="M153.22 308.002C152.74 307.962 152.27 307.912 151.799 307.862L152.79 297.814C153.22 297.854 153.661 297.905 154.091 297.935L153.22 308.002Z" fill="#23E1F1"/>
<path d="M102.153 292.55L107.007 283.694C107.387 283.904 107.777 284.114 108.158 284.314L103.404 293.221C102.984 293.001 102.574 292.77 102.153 292.55Z" fill="#23E1F1"/>
<path d="M71.1111 268.883L78.3663 261.858C78.6665 262.169 78.9767 262.479 79.277 262.789L72.1018 269.894C71.7716 269.554 71.4413 269.224 71.1111 268.883Z" fill="#23E1F1"/>
<path d="M96.5094 289.268L101.803 280.662C102.173 280.892 102.544 281.122 102.914 281.343L97.7203 290.009C97.31 289.759 96.9097 289.518 96.5094 289.268Z" fill="#23E1F1"/>
<path d="M66.688 264.08L74.2734 257.425C74.5637 257.756 74.8539 258.076 75.1441 258.406L67.6287 265.141C67.3084 264.791 66.9982 264.44 66.688 264.08Z" fill="#23E1F1"/>
<path d="M107.968 295.543L112.361 286.456C112.751 286.646 113.151 286.836 113.542 287.016L109.249 296.153C108.818 295.953 108.398 295.753 107.968 295.543Z" fill="#23E1F1"/>
<path d="M80.6479 277.79L87.1626 270.074C87.5029 270.354 87.8331 270.635 88.1734 270.915L81.7387 278.7C81.3785 278.4 81.0082 278.09 80.6479 277.79Z" fill="#23E1F1"/>
<path d="M91.0355 285.705L96.7496 277.379C97.1099 277.63 97.4702 277.87 97.8304 278.12L92.2064 286.506C91.8161 286.236 91.4258 285.976 91.0355 285.705Z" fill="#23E1F1"/>
<path d="M83.6202 266.962L76.8153 274.417C76.455 274.097 76.1148 273.777 75.7745 273.457L82.6595 266.071C82.9797 266.372 83.2999 266.672 83.6202 266.962Z" fill="#23E1F1"/>
<path d="M85.7417 281.873L91.8661 273.847C92.2164 274.117 92.5666 274.378 92.9068 274.638L86.8725 282.734C86.4922 282.453 86.122 282.163 85.7417 281.873Z" fill="#23E1F1"/>
<path d="M218.507 65.4673C228.434 70.1306 237.751 76.0949 246.197 83.17L245.146 84.4209C236.81 77.4359 227.614 71.5617 217.807 66.9484L218.507 65.4673Z" fill="#23E1F1"/>
<path d="M100.252 257.045C109.069 264.47 118.976 270.254 129.723 274.247C140.841 278.39 152.56 280.482 164.538 280.482V282.123C152.36 282.123 140.461 279.991 129.163 275.788C118.235 271.725 108.148 265.841 99.1914 258.306L100.252 257.045Z" fill="#23E1F1"/>
<path d="M132.846 88.4734L130.714 82.2789C131.154 82.1188 131.605 81.9687 132.055 81.8286L134.096 88.0531C133.676 88.1832 133.266 88.3233 132.846 88.4734Z" fill="#036A75"/>
<path d="M138.65 86.6724L136.908 80.3578C137.359 80.2377 137.819 80.1176 138.269 79.9976L139.931 86.3321C139.5 86.4422 139.07 86.5623 138.65 86.6724Z" fill="#036A75"/>
<path d="M111.09 99.1515L107.497 93.6775C107.888 93.4274 108.278 93.1672 108.678 92.917L112.201 98.441C111.83 98.6711 111.46 98.9113 111.09 99.1515Z" fill="#036A75"/>
<path d="M116.274 95.9791L113.021 90.295C113.432 90.0548 113.842 89.8247 114.252 89.6045L117.424 95.3286C117.034 95.5388 116.654 95.7589 116.274 95.9791Z" fill="#036A75"/>
<path d="M127.171 90.6253L124.65 84.5709C125.09 84.3908 125.52 84.2207 125.961 84.0405L128.382 90.1249C127.982 90.285 127.572 90.4551 127.171 90.6253Z" fill="#036A75"/>
<path d="M121.637 93.127L118.745 87.2528C119.166 87.0426 119.586 86.8425 120.016 86.6323L122.828 92.5566C122.428 92.7467 122.028 92.9369 121.637 93.127Z" fill="#036A75"/>
<path d="M97.1299 101.453C97.4901 101.153 97.8504 100.852 98.2107 100.552L102.394 105.586C102.053 105.876 101.713 106.156 101.383 106.436L97.1299 101.453Z" fill="#036A75"/>
<path d="M92.3364 105.806C92.6767 105.486 93.0069 105.156 93.3572 104.835L97.8404 109.609C97.5202 109.909 97.1999 110.219 96.8897 110.52L92.3364 105.806Z" fill="#036A75"/>
<path d="M144.544 85.2515L143.213 78.8368C143.673 78.7468 144.144 78.6467 144.604 78.5566L145.855 84.9913C145.415 85.0713 144.984 85.1614 144.544 85.2515Z" fill="#036A75"/>
<path d="M107.187 101.863C106.827 102.123 106.477 102.384 106.126 102.644L102.193 97.4099C102.574 97.1297 102.954 96.8495 103.324 96.5693L107.187 101.863Z" fill="#036A75"/>
<path d="M205.988 92.4364C192.979 86.302 179.029 83.1997 164.538 83.1997C159.975 83.1997 155.392 83.52 150.909 84.1404L149.998 77.6557C154.791 76.9853 159.675 76.645 164.538 76.645C180 76.645 194.89 79.9674 208.78 86.5121L205.988 92.4364Z" fill="#036A75"/>
<path d="M98.3608 246.788C80.678 229.115 70.941 205.608 70.941 180.61C70.941 151.99 83.7903 125.32 106.176 107.438L106.867 108.298C84.731 125.971 72.0318 152.33 72.0318 180.61C72.0318 205.318 81.6587 228.545 99.1313 246.017C116.594 263.49 139.821 273.117 164.538 273.117C192.759 273.117 219.078 260.468 236.75 238.422L237.601 239.102C219.718 261.408 193.089 274.207 164.538 274.207C139.54 274.207 116.033 264.47 98.3608 246.788Z" fill="#184D67"/>
<path d="M292.751 112.831L323.152 97.3502C309.743 71.0212 289.849 48.1048 265.611 31.0825L246.007 59.0026C265.691 72.8325 281.863 91.4459 292.751 112.831Z" fill="#23E1F1"/>
<path d="M216.556 353.144C243.305 344.538 268.083 329.507 288.207 309.683L264.26 285.385C247.918 301.487 227.814 313.686 206.108 320.671L216.556 353.144Z" fill="#23E1F1"/>
<path d="M161.006 361.82V327.706C142.633 327.706 124.73 324.363 107.777 317.789L95.4286 349.591C116.334 357.707 138.399 361.82 161.006 361.82Z" fill="#23E1F1"/>
<path d="M111.2 41.6701C115.873 40.0389 120.687 38.6179 125.49 37.4671L117.575 4.2832C111.63 5.70423 105.696 7.45548 99.9219 9.46693L111.2 41.6701Z" fill="#23E1F1"/>
<path d="M195.821 37.597L203.867 4.4432C194.94 2.28164 185.774 0.780561 176.597 0L173.695 33.9945C181.14 34.6249 188.586 35.8358 195.821 37.597Z" fill="#23E1F1"/>
<path d="M285.785 100.302L299.315 91.5657C277.86 58.3518 245.206 34.1144 207.369 23.3066L202.946 38.7978C237.03 48.5348 266.452 70.3805 285.785 100.302Z" fill="#036A75"/>
<path d="M300.806 265.481C304.249 259.947 307.381 254.153 310.133 248.259L295.523 241.464C293.061 246.768 290.229 251.991 287.136 256.975L300.806 265.481Z" fill="#036A75" stroke="#036A75" stroke-width="0.480345" stroke-miterlimit="10"/>
<path d="M265.941 305.289C272.756 299.685 279.151 293.481 284.965 286.846L272.846 276.229C267.612 282.213 261.838 287.807 255.704 292.86L265.941 305.289Z" fill="#036A75"/>
<path d="M85.5315 322.922L93.177 308.752C79.8775 301.577 67.7888 292.411 57.2512 281.513L45.6729 292.701C57.3613 304.799 70.7709 314.967 85.5315 322.922Z" fill="#036A75"/>
<path d="M4.12297 216.246L19.8143 212.643C17.3525 201.905 16.1016 190.827 16.1016 179.699C16.1016 154.571 22.5762 129.783 34.805 108.018L20.7649 100.122C7.17516 124.289 0 151.809 0 179.699C0 192.038 1.38099 204.327 4.12297 216.246Z" fill="#036A75"/>
<path d="M47.0939 89.5643C49.1554 86.9224 51.347 84.3206 53.5886 81.8288L41.6 71.061C39.1182 73.833 36.6964 76.7251 34.4048 79.6472L47.0939 89.5643Z" fill="#036A75"/>
<path d="M64.1161 71.2315C67.9088 67.789 71.9117 64.5166 76.0247 61.4945L66.4978 48.5151C61.9345 51.8575 57.4914 55.5002 53.2883 59.3129L64.1161 71.2315Z" fill="#036A75"/>
<path d="M98.8411 47.7542C102.494 45.9829 106.266 44.3517 110.049 42.8907L104.275 27.8599C100.062 29.471 95.879 31.2923 91.816 33.2537L98.8411 47.7542Z" fill="#036A75"/>
<path d="M128.172 37.2568C139.38 34.5548 150.979 33.1839 162.617 33.1839V17.0723C149.708 17.0723 136.848 18.5934 124.399 21.5955L128.172 37.2568Z" fill="#036A75"/>
<path d="M219.721 117.223C229.746 126.075 236.469 136.735 239.739 149.742C239.739 150.066 239.739 150.389 239.739 150.723C233.936 151.232 228.131 151.583 222.312 151.858C221.094 151.919 219.877 151.987 218.66 152.061C216.888 152.168 215.116 152.252 213.342 152.332C212.802 152.37 212.261 152.407 211.704 152.446C208.913 152.546 207.262 152.406 205.093 150.553C203.755 149.208 202.794 147.896 202.009 146.156C198.448 139.224 192.69 135.683 185.581 133.13C173.355 129.367 159.883 130.577 148.525 136.44C145.864 138.005 143.488 139.864 141.169 141.896C140.831 142.186 140.494 142.477 140.146 142.777C131.978 150.332 127.348 162.797 126.887 173.752C126.599 186.215 126.888 199.701 134.794 210.061C135.044 210.399 135.293 210.738 135.55 211.086C141.904 219.008 151.915 223.341 161.766 224.773C169.661 225.202 177.76 225.418 185.305 222.812C185.821 222.64 186.337 222.468 186.868 222.29C191.997 220.367 196.652 217.356 200.508 213.494C200.831 213.494 201.155 213.494 201.488 213.494C201.619 213.203 201.75 212.911 201.885 212.611C202.479 211.513 203.09 210.845 203.971 209.969C208.322 205.092 210.826 198.563 212.768 192.407C212.51 192.484 212.252 192.561 211.987 192.64C210.517 192.96 209.106 193.022 207.603 193.088C207.285 193.102 206.968 193.117 206.64 193.132C205.588 193.179 204.537 193.223 203.484 193.267C202.744 193.299 202.002 193.331 201.262 193.364C199.702 193.431 198.143 193.498 196.584 193.563C195.006 193.629 193.428 193.697 191.851 193.767C187.729 193.95 183.607 194.121 179.484 194.261C177.338 194.335 175.195 194.43 173.05 194.533C172.077 194.566 171.103 194.597 170.13 194.627C169.491 194.666 169.491 194.666 168.839 194.706C166.132 194.758 166.132 194.758 164.885 193.663C163.723 192.136 162.935 190.713 162.89 188.761C162.876 188.368 162.862 187.974 162.847 187.568C162.844 187.152 162.842 186.736 162.839 186.308C162.821 185.651 162.821 185.651 162.803 184.981C162.768 183.533 162.755 182.086 162.747 180.637C162.742 180.1 162.738 179.563 162.734 179.009C162.713 175.629 162.724 172.248 162.747 168.868C176.282 168.138 189.82 167.526 203.363 166.975C206.042 166.866 208.72 166.754 211.399 166.642C213.506 166.554 215.612 166.468 217.719 166.382C218.707 166.341 219.694 166.3 220.682 166.259C223.765 166.129 226.848 166.014 229.931 165.926C230.353 165.913 230.775 165.9 231.209 165.887C232.426 165.855 233.642 165.834 234.859 165.817C235.218 165.807 235.577 165.797 235.947 165.787C238.078 165.773 239.478 166.052 241.241 167.265C243.352 169.659 243.225 172.344 243.172 175.396C243.177 176.287 243.177 176.287 243.182 177.196C243.187 178.482 243.185 179.767 243.174 181.053C243.163 183.15 243.227 185.242 243.293 187.338C243.513 195.333 243.259 202.534 240.23 210.061C240.083 210.442 239.936 210.823 239.784 211.216C236.753 218.971 232.479 225.872 226.989 232.129C226.637 232.546 226.285 232.964 225.922 233.393C213.72 247.524 194.786 255.341 176.47 256.812C155.991 258.302 135.631 253.903 119.754 240.328C118.535 239.25 117.343 238.149 116.159 237.033C115.833 236.739 115.508 236.446 115.172 236.142C101.153 222.976 94.1591 200.943 93.1541 182.241C93.1396 181.712 93.1251 181.182 93.1101 180.637C93.1 180.304 93.09 179.971 93.0797 179.629C92.6714 164.124 95.536 149.687 102.918 136.011C103.201 135.48 103.484 134.949 103.776 134.402C105.752 130.852 108.098 127.789 110.765 124.732C111.124 124.312 111.484 123.892 111.854 123.46C138.202 93.3486 189.796 91.5357 219.721 117.223Z" fill="url(#paint0_linear_3_84)"/>
<path d="M214.163 191.869C215.169 191.884 216.175 191.9 217.18 191.917C216.333 200.73 212.882 208.09 207.373 214.965C207.012 215.438 207.012 215.438 206.645 215.919C200.132 224.078 189.24 228.812 179.09 230.058C165.915 231.319 153.036 229.118 142.402 220.904C137.933 217.156 134.771 213.095 131.851 208.099C131.533 207.559 131.533 207.559 131.208 207.008C130.87 206.138 130.87 206.138 131.361 204.667C131.569 205.011 131.777 205.355 131.991 205.709C138.064 215.532 146.272 220.941 157.293 223.926C165.981 225.949 176.846 225.734 185.305 222.812C185.821 222.64 186.336 222.468 186.868 222.29C191.997 220.367 196.652 217.356 200.507 213.494C200.831 213.494 201.154 213.494 201.488 213.494C201.619 213.203 201.749 212.911 201.885 212.611C202.479 211.513 203.09 210.845 203.971 209.969C208.034 205.413 210.46 199.403 212.338 193.663C212.929 191.934 212.929 191.934 214.163 191.869Z" fill="#018790"/>
<path d="M210.315 110.51C208.844 111.001 208.844 111.001 207.99 110.633C207.644 110.431 207.299 110.228 206.943 110.02C188.988 100.594 164.657 100.202 145.582 106.097C137.151 108.74 129.473 112.903 122.534 118.357C122.245 118.584 121.956 118.81 121.658 119.044C111.584 127.073 104.057 137.989 99.9792 150.221C99.4849 151.704 99.4849 151.704 98.9907 152.88C98.3435 154.577 97.9334 156.314 97.5233 158.079C97.4424 158.412 97.3615 158.745 97.2781 159.088C97.0124 160.22 96.7729 161.354 96.5425 162.493C96.4517 162.936 96.3608 163.379 96.2672 163.836C95.4416 168.419 95.4121 172.949 95.4339 177.589C95.4391 178.919 95.4339 180.248 95.4276 181.578C95.4237 186.255 95.6037 190.748 96.5425 195.349C96.6146 195.707 96.6867 196.064 96.7609 196.432C97.0606 197.843 97.3977 199.246 97.7264 200.65C98.0093 202.191 98.0656 203.595 98.0137 205.157C97.1102 203.802 96.8017 203.051 96.4353 201.514C96.2814 200.873 96.2814 200.873 96.1244 200.219C96.0196 199.765 95.9149 199.311 95.8069 198.843C95.6984 198.378 95.5898 197.913 95.4779 197.434C90.6989 176.585 92.7212 154.901 102.918 136.011C103.201 135.48 103.484 134.949 103.776 134.402C105.752 130.852 108.098 127.789 110.764 124.732C111.124 124.312 111.483 123.892 111.854 123.46C135.721 96.1827 179.995 92.3667 210.315 110.51Z" fill="#018790"/>
<path d="M231.212 165.886C232.432 165.851 233.652 165.828 234.872 165.809C235.413 165.792 235.413 165.792 235.966 165.776C238.103 165.759 239.387 166.002 241.027 167.397C241.603 168.125 241.603 168.125 242.192 168.868C240.515 169.986 239.804 170.001 237.824 170.079C237.221 170.106 236.618 170.132 235.996 170.159C235.329 170.184 234.662 170.207 233.995 170.232C233.296 170.26 232.598 170.289 231.9 170.319C230.012 170.397 228.124 170.469 226.237 170.54C224.664 170.599 223.091 170.662 221.519 170.725C216.7 170.918 211.879 171.099 207.059 171.277C205.934 171.319 204.81 171.36 203.685 171.402C199.019 171.575 194.354 171.741 189.688 171.902C189.092 171.923 188.496 171.944 187.882 171.966C180.481 172.223 173.094 172.355 165.689 172.301C165.704 172.656 165.719 173.01 165.734 173.376C166.023 180.377 166.262 187.361 166.18 194.369C163.144 191.434 163.144 191.434 163.034 188.953C163.015 188.553 162.996 188.153 162.976 187.741C162.962 187.308 162.946 186.876 162.931 186.43C162.912 185.984 162.894 185.537 162.874 185.077C162.673 179.675 162.712 174.272 162.747 168.868C176.282 168.139 189.82 167.526 203.364 166.975C206.042 166.866 208.72 166.754 211.399 166.642C213.506 166.554 215.612 166.468 217.719 166.382C218.707 166.342 219.695 166.3 220.682 166.259C224.192 166.111 227.702 165.995 231.212 165.886Z" fill="#018790"/>
<path d="M210.316 110.51C208.844 111.001 208.844 111.001 207.99 110.633C207.645 110.431 207.3 110.228 206.944 110.02C194.23 103.346 179.917 102.489 165.873 102.603C164.803 102.608 163.733 102.612 162.663 102.616C160.075 102.627 157.488 102.643 154.9 102.664C154.739 102.017 154.577 101.369 154.41 100.702C174.002 97.9 193.22 100.28 210.316 110.51Z" fill="#018790"/>
<path d="M162.747 168.868C163.475 169.353 163.475 169.353 164.218 169.849C165.464 170.067 165.464 170.067 166.879 170.142C167.417 170.18 167.955 170.219 168.509 170.259C169.374 170.314 169.374 170.314 170.256 170.37C171.137 170.43 171.137 170.43 172.036 170.492C177.436 170.853 182.839 171.112 188.247 171.32C188.247 171.482 188.247 171.644 188.247 171.81C180.722 172.183 173.223 172.367 165.689 172.3C165.704 172.656 165.719 173.01 165.734 173.376C166.022 180.377 166.262 187.361 166.179 194.369C163.143 191.434 163.143 191.434 163.034 188.953C163.015 188.553 162.996 188.153 162.976 187.741C162.961 187.308 162.946 186.876 162.93 186.43C162.912 185.983 162.893 185.537 162.874 185.077C162.673 179.676 162.701 174.271 162.747 168.868Z" fill="#018790"/>
<path d="M163.237 168.868C164.31 168.854 165.383 168.845 166.455 168.837C167.053 168.831 167.65 168.826 168.266 168.82C170.103 168.868 170.103 168.868 171.723 169.117C174.498 169.486 177.259 169.362 180.053 169.296C182.633 169.265 185.07 169.434 187.621 169.831C191.411 170.418 195.148 170.555 198.975 170.645C199.652 170.664 200.33 170.683 201.007 170.703C202.639 170.749 204.27 170.791 205.902 170.83C205.902 170.991 205.902 171.153 205.902 171.32C202.093 171.345 198.285 171.362 194.477 171.374C193.188 171.378 191.899 171.385 190.61 171.394C183.712 171.438 176.843 171.377 169.959 170.918C169.394 170.884 168.829 170.849 168.246 170.814C167.73 170.775 167.213 170.736 166.681 170.695C166.227 170.662 165.774 170.629 165.306 170.595C164.218 170.339 164.218 170.339 163.237 168.868Z" fill="#018790"/>
<path d="M186.347 102.081C186.839 102.142 186.839 102.142 187.341 102.204C188.914 102.418 190.395 102.718 191.922 103.16C193.658 103.701 193.658 103.701 195.577 103.853C197.714 104.091 199.484 104.805 201.427 105.698C201.765 105.85 202.103 106.001 202.452 106.157C205.196 107.411 207.792 108.854 210.316 110.51C208.844 111.001 208.844 111.001 207.99 110.633C207.645 110.43 207.299 110.228 206.944 110.02C197.986 105.318 187.9 103.623 177.949 102.664C177.949 102.502 177.949 102.34 177.949 102.173C180.832 101.659 183.448 101.717 186.347 102.081Z" fill="#018790"/>
<path d="M196.584 138.463C201.615 140.836 205.2 145.7 207.373 150.723C207.211 151.047 207.049 151.37 206.883 151.704C204.14 149.674 202.831 147.784 201.302 144.756C200.216 142.859 198.839 141.356 197.339 139.777C196.584 138.954 196.584 138.954 196.584 138.463Z" fill="#018790"/>
<path d="M177.459 169.358C178.46 169.331 179.461 169.312 180.463 169.297C181.299 169.28 181.299 169.28 182.152 169.262C183.97 169.292 185.716 169.553 187.512 169.833C191.332 170.408 195.117 170.554 198.975 170.645C199.652 170.664 200.33 170.683 201.007 170.703C202.639 170.748 204.27 170.79 205.902 170.829C205.902 170.991 205.902 171.153 205.902 171.32C203.173 171.344 200.445 171.362 197.715 171.373C196.791 171.378 195.866 171.385 194.941 171.394C183.459 171.497 183.459 171.497 178.44 170.339C178.116 170.015 177.792 169.692 177.459 169.358Z" fill="#018790"/>
</g>
<defs>
<linearGradient id="paint0_linear_3_84" x1="197.577" y1="105.534" x2="138.954" y2="250.917" gradientUnits="userSpaceOnUse">
<stop stop-color="#018790"/>
<stop offset="1" stop-color="#00E3F7"/>
</linearGradient>
<clipPath id="clip0_3_84">
<rect width="324" height="362" fill="white"/>
</clipPath>
</defs>
</svg>
